# xmcd CD database file
#
# Track frame offsets:
#	150
#	12375
#	25725
#	35212
#	47849
#	60599
#	72074
#	80848
#	92885
#	109010
#	121984
#	138934
#	147821
#	160871
#	172458
#	185264
#
# Disc length: 2639 seconds
#
# Revision: 0
# Processed by: cddbd v1.5.2PL0 Copyright (c) Steve Scherf et al.
# Submitted via: CDex 1.70beta2
#
DISCID=e10a4d10
DTITLE=Johnny Cash - The Beast In Me
DYEAR=1900
DGENRE=Country
TTITLE0=Folsom Prison Blues
TTITLE1=If I Were A Carpenter
TTITLE2=Why Me Lord
TTITLE3=Ring Of Fire
TTITLE4=Peace In The Valley
TTITLE5=These Hands
TTITLE6=Get Rhythm
TTITLE7=Sixteen Tons
TTITLE8=A Boy Named Sue
TTITLE9=The Man In Black
TTITLE10=Sunday Mornin'
TTITLE11=Comin' Down
TTITLE12=Jackson
TTITLE13=A Sin Called Love
TTITLE14=Me And Bobby Mcgee
TTITLE15=I Walk The Line
EXTD=
EXTT0=
EXTT1=
EXTT2=
EXTT3=
EXTT4=
EXTT5=
EXTT6=
EXTT7=
EXTT8=
EXTT9=
EXTT10=
EXTT11=
EXTT12=
EXTT13=
EXTT14=
EXTT15=
PLAYORDER=
